<?xml version="1.0" encoding="UTF-8"?>
<!DOCTYPE svg PUBLIC "-//W3C//DTD SVG 1.1//EN" "http://www.w3.org/Graphics/SVG/1.1/DTD/svg11.dtd">
<!-- Creator: CorelDRAW -->
<svg xmlns="http://www.w3.org/2000/svg" xml:space="preserve" width="6.82666in" height="6.82666in" style="shape-rendering:geometricPrecision; text-rendering:geometricPrecision; image-rendering:optimizeQuality; fill-rule:evenodd; clip-rule:evenodd"
viewBox="0 0 6.82666 6.82666"
 xmlns:xlink="http://www.w3.org/1999/xlink">
 <defs>
  <style type="text/css">
   <![CDATA[
    .fil5 {fill:none}
    .fil3 {fill:#63CBE5}
    .fil4 {fill:#949494}
    .fil2 {fill:#EBE5DF}
    .fil1 {fill:#FECA5F}
    .fil0 {fill:#212121;fill-rule:nonzero}
   ]]>
  </style>
 </defs>
 <g id="Layer_x0020_1">
  <metadata id="CorelCorpID_0Corel-Layer"/>
  <path class="fil0" d="M1.7437 1.71438l3.41426 0c0.0862244,0 0.15765,0.0412559 0.210063,0.107835 0.0473465,0.0601496 0.0780118,0.142571 0.0871496,0.231126l0.367445 3.55937c0.00140945,0.0136772 0.00209843,0.0254094 0.00209843,0.0352677 0,0.0837362 -0.0308661,0.159807 -0.0787126,0.216811 -0.0500433,0.0596102 -0.119669,0.0992205 -0.19411,0.106902 -0.0105315,0.00108268 -0.0194134,0.00164567 -0.0264882,0.00164567l-4.14915 0c-0.00706693,0 -0.0159449,-0.000562992 -0.0264961,-0.00164567 -0.0744409,-0.00768504 -0.144063,-0.0472835 -0.194102,-0.106894 -0.0478543,-0.0570039 -0.0787165,-0.133075 -0.0787165,-0.216815 0,-0.00985433 0.000688976,-0.0215945 0.00209843,-0.0352717l0.367449 -3.55937c0.00914173,-0.0885669 0.0397992,-0.170984 0.0871457,-0.23113 0.0524134,-0.0665866 0.123839,-0.107831 0.210067,-0.107831zm3.41426 0.213339l-3.41426 0c-0.0151299,0 -0.0298504,0.0100079 -0.042563,0.0261614 -0.0227953,0.0289606 -0.0379291,0.0722047 -0.0429803,0.12113l-0.367449 3.55937c-0.000287402,0.00279528 -0.000429134,0.00737402 -0.000429134,0.0136024 0,0.0312677 0.0112559,0.0593583 0.0287087,0.0801457 0.0152559,0.0181732 0.0341378,0.0300079 0.0524409,0.0318937 0.000145669,1.1811e-005 0.00142913,-2.3622e-005 0.00482677,-2.3622e-005l4.14915 0c0.00338976,0 0.00467323,3.54331e-005 0.0048189,2.3622e-005 0.0183071,-0.00188976 0.0371929,-0.0137283 0.0524488,-0.0319016 0.0174488,-0.0207874 0.0287047,-0.048878 0.0287047,-0.0801417 0,-0.00622835 -0.000141732,-0.0108071 -0.000429134,-0.0135984l-0.367445 -3.55937c-0.00504724,-0.0489173 -0.020185,-0.0921614 -0.0429843,-0.121126 -0.0127165,-0.0161535 -0.0274331,-0.0261654 -0.0425591,-0.0261654z"/>
  <path class="fil0" d="M2.55999 2.44366c0,0.0589094 -0.0477598,0.106669 -0.106669,0.106669 -0.0589094,0 -0.106669,-0.0477598 -0.106669,-0.106669l0 -1.14667c0,-0.12111 0.0494724,-0.231138 0.129165,-0.310835 0.0796969,-0.0796929 0.189724,-0.129165 0.310835,-0.129165l1.25335 0c0.12111,0 0.231134,0.0494724 0.310827,0.129169 0.0797008,0.0796969 0.129173,0.189724 0.129173,0.310831l0 1.14667c0,0.0589094 -0.0477598,0.106669 -0.106669,0.106669 -0.0589094,0 -0.106669,-0.0477598 -0.106669,-0.106669l0 -1.14667c0,-0.0622165 -0.0255354,-0.118866 -0.0666693,-0.159996 -0.0411299,-0.0411299 -0.0977717,-0.0666654 -0.159992,-0.0666654l-1.25335 0c-0.0622205,0 -0.11887,0.0255315 -0.16,0.0666614 -0.0411299,0.0411299 -0.0666614,0.0977795 -0.0666614,0.16l0 1.14667z"/>
  <path class="fil0" d="M1.97333 2.88c-0.0589094,0 -0.106669,-0.0477598 -0.106669,-0.106669 0,-0.0589094 0.0477598,-0.106669 0.106669,-0.106669l2.88 0c0.0589094,0 0.106669,0.0477598 0.106669,0.106669 0,0.0589094 -0.0477598,0.106669 -0.106669,0.106669l-2.88 0z"/>
  <path class="fil0" d="M2.91012 4.3596c0,-0.0866181 -0.0351102,-0.165047 -0.0918661,-0.221803 -0.0567559,-0.0567559 -0.135185,-0.0918661 -0.221803,-0.0918661 -0.086622,0 -0.165047,0.0351102 -0.221803,0.0918661 -0.0567559,0.0567559 -0.0918661,0.135185 -0.0918661,0.221803 0,0.0734449 0.0508228,0.212827 0.115976,0.349591 0.0649843,0.136394 0.143382,0.268421 0.199551,0.329201 0.058437,-0.0523425 0.128169,-0.166902 0.187114,-0.290626 0.0706732,-0.148346 0.124697,-0.307752 0.124697,-0.388165zm-0.0541575 -0.259512c0.0664094,0.0664134 0.107496,0.158173 0.107496,0.259512 0,0.0880276 -0.0562835,0.256531 -0.129909,0.411079 -0.0681969,0.143138 -0.15226,0.276126 -0.221787,0.325047l-3.14961e-005 -4.33071e-005c-0.00988189,0.00696063 -0.0235984,0.00646457 -0.0329882,-0.00193701 -0.0617953,-0.0554213 -0.15428,-0.206677 -0.22811,-0.361642 -0.0680827,-0.142906 -0.121189,-0.290776 -0.121189,-0.372504 0,-0.101339 0.0410866,-0.193098 0.107496,-0.259512 0.0664134,-0.0664094 0.158173,-0.107496 0.259512,-0.107496 0.101339,0 0.193098,0.0410866 0.259512,0.107496z"/>
  <path class="fil0" d="M2.91012 4.36952c0,-0.0147283 0.0119409,-0.0266693 0.0266693,-0.0266693 0.0147283,0 0.0266693,0.0119409 0.0266693,0.0266693 0,0.101339 -0.0410866,0.193098 -0.107496,0.259512 -0.0664134,0.0664094 -0.158173,0.107496 -0.259512,0.107496 -0.101339,0 -0.193098,-0.0410866 -0.259512,-0.107496 -0.0664094,-0.0664134 -0.107496,-0.158173 -0.107496,-0.259512 0,-0.0147283 0.0119409,-0.0266693 0.0266693,-0.0266693 0.0147283,0 0.0266693,0.0119409 0.0266693,0.0266693 0,0.086622 0.0351102,0.165047 0.0918661,0.221803 0.0567559,0.0567559 0.135181,0.0918661 0.221803,0.0918661 0.0866181,0 0.165047,-0.0351102 0.221803,-0.0918661 0.0567559,-0.0567559 0.0918661,-0.135181 0.0918661,-0.221803z"/>
  <path class="fil0" d="M2.39798 4.50842l0.0115394 -0.167366c0.000976378,-0.0146693 0.0136654,-0.0257677 0.0283346,-0.0247913 0.00508268,0.000338583 0.00973622,0.00208268 0.0136063,0.00482677 0.00827165,0.00506299 0.0166024,0.00967717 0.0245197,0.013685 0.00838189,0.00424016 0.0160984,0.00764567 0.0225906,0.0100354l0.0357677 0.0131693c0.0130945,0.00479921 0.0201417,0.0188071 0.0165197,0.0320157l-0.0443346 0.191335c-0.00327559,0.0143228 -0.0175512,0.0232756 -0.031874,0.02 -0.00275591,-0.000629921 -0.00530709,-0.00166929 -0.00761811,-0.00303543 -0.0286181,-0.0145472 -0.0450236,-0.0288386 -0.0547008,-0.0425984 -0.0114803,-0.0163228 -0.0136496,-0.0307677 -0.0143504,-0.0441496 -5.51181e-005,-0.00105512 -3.93701e-005,-0.00209449 2.75591e-005,-0.00312598l-2.75591e-005 0zm0.0618031 -0.122331l-0.0085748 0.124386c0.000362205,0.00482677 0.00131496,0.00983071 0.00466535,0.0145984 0.00176772,0.00251575 0.00412205,0.00515354 0.00722441,0.00792126l0.0308504 -0.133138 -0.0137087 -0.00504724c-0.0060748,-0.00223622 -0.0129921,-0.00517323 -0.0204567,-0.00872047z"/>
  <path class="fil0" d="M2.62794 4.1572l-0.0943543 0.0813465c0.00798031,0.00418504 0.0151417,0.00835039 0.0211575,0.012248l0.0105039 0.00681102 0.0880354 -0.104437c-0.00414567,-0.000850394 -0.0077126,-0.00116535 -0.0108189,-0.0010748 -0.00578346,0.000169291 -0.0103898,0.00246063 -0.0145236,0.0051063zm-0.160551 0.0682087l0.127051 -0.109539 3.93701e-006 3.93701e-006c0.000814961,-0.000700787 0.00168504,-0.00136614 0.00260236,-0.00198031 0.0110945,-0.0074252 0.0239291,-0.0143307 0.0439606,-0.0149252 0.0171535,-0.000503937 0.0389055,0.00423622 0.0684843,0.0190394l-3.93701e-006 3.93701e-006c0.00183071,0.000917323 0.00357874,0.00205906 0.0052126,0.00343307 0.0112165,0.00943307 0.0126654,0.0261811 0.00323228,0.0373976l-0.12628 0.149803c-0.00832283,0.0110669 -0.0239213,0.0139488 -0.0357087,0.00629134l-0.0301614 -0.0195591c-0.00584646,-0.00379134 -0.0135197,-0.00811417 -0.0225197,-0.0125827 -0.00818504,-0.00406693 -0.0177283,-0.00832677 -0.0282677,-0.0124882l2.3622e-005 -5.90551e-005c-0.00386614,-0.00151969 -0.00743307,-0.00397638 -0.0103386,-0.00733465 -0.0096063,-0.0111024 -0.0083937,-0.0278976 0.00270866,-0.0375039z"/>
  <path class="fil0" d="M2.75652 4.45809c0.00618504,-0.00769291 0.0164252,-0.0116299 0.0266929,-0.00927953 0.0143228,0.00327559 0.0232756,0.0175512 0.02,0.031874l-0.0221969 0.0957874c-0.00327559,0.0143228 -0.0175512,0.0232756 -0.031874,0.02 -0.00277165,-0.000633858 -0.00533465,-0.00167717 -0.00765354,-0.00305512 -0.0171496,-0.00882283 -0.0272677,-0.0178031 -0.0334567,-0.0266024 -0.00800787,-0.0113858 -0.00951181,-0.0212598 -0.00998819,-0.030374 -5.51181e-005,-0.00105512 -3.93701e-005,-0.00209449 2.75591e-005,-0.00312598l-2.75591e-005 0 0.00529134 -0.0767362c0.000976378,-0.0146693 0.0136654,-0.0257677 0.0283346,-0.0247913 0.0139882,0.000929134 0.0247283,0.0125118 0.0248504,0.0263031z"/>
  <path class="fil0" d="M2.8153 4.45663c-0.00949213,0.0112165 -0.0262874,0.0126181 -0.0375039,0.00312598 -0.00804724,-0.00681102 -0.0110433,-0.0173858 -0.00858661,-0.0269567 -0.0110591,0.00812598 -0.026689,0.00650787 -0.0358228,-0.00404724 -0.0096063,-0.0111024 -0.0083937,-0.0278976 0.00270866,-0.0375039l0.058126 -0.0501142 3.93701e-006 3.93701e-006c0.000814961,-0.000700787 0.00168504,-0.00136614 0.00260236,-0.00198031 0.00753937,-0.00504724 0.0163189,-0.00974409 0.0303189,-0.0101575 0.010752,-0.000314961 0.0239606,0.00238189 0.0412087,0.0107598 0.00251181,0.0010315 0.00490551,0.00246457 0.00709055,0.00431102 0.0112165,0.00949213 0.0126181,0.0262874 0.00312598,0.0375039l-0.0632717 0.0750551z"/>
  <path class="fil0" d="M2.82326 4.48822c-0.00954724,0.00761811 -0.0207677,0.0119646 -0.0325394,0.0132244 -0.0114173,0.00121654 -0.0232598,-0.000515748 -0.034378,-0.00498819l-0.276106 -0.101654c-0.0288976,-0.0106378 -0.077189,-0.0374606 -0.112913,-0.0702559 -0.0280472,-0.0257441 -0.0492835,-0.0560591 -0.0511732,-0.0878307 -0.000625984,-0.0106299 0.00508268,-0.0201732 0.0138543,-0.0249488 0.0266811,-0.0165551 0.0629567,-0.0174213 0.0996299,-0.0103819 0.0481063,0.00923622 0.0990551,0.0325 0.12511,0.0494016l0.244894 0.158815 2.3622e-005 -3.54331e-005c0.0103228,0.00624409 0.0188701,0.0147362 0.0247756,0.024685 0.00598819,0.0100787 0.00920079,0.021622 0.00882283,0.0338622 -0.000224409,0.00815748 -0.00410236,0.0153583 -0.0100276,0.0200709l2.75591e-005 3.54331e-005zm-0.324693 -0.143417l0.239295 0.0881024 -0.212079 -0.137535c-0.021878,-0.014189 -0.0649961,-0.0337913 -0.10615,-0.0416929 -0.0164882,-0.00316142 -0.0321496,-0.00442913 -0.0448071,-0.00248819 0.00598031,0.0112008 0.0162638,0.0229291 0.0285354,0.0341929 0.0303504,0.0278622 0.071,0.0505118 0.0952047,0.0594213z"/>
  <path class="fil0" d="M2.00085 3.57321l1.19119 0c0.0441811,0 0.08,0.0358189 0.08,0.08l0 1.78679c0,0.0441811 -0.0358189,0.08 -0.08,0.08l-1.05825 0c-0.0586457,0 -0.111906,-0.023937 -0.150457,-0.0624882 -0.0385512,-0.0385512 -0.0624882,-0.091811 -0.0624882,-0.150457l0 -1.65384c0,-0.0441811 0.0358189,-0.08 0.08,-0.08zm1.11119 0.16l-1.03119 0 0 1.57384c0,0.0144764 0.00598425,0.0277008 0.0156142,0.0373307 0.00962992,0.00962992 0.0228543,0.0156142 0.0373307,0.0156142l0.978248 0 0 -1.62679z"/>
  <path class="fil0" d="M2.03554 3.72509c-0.0396929,0.0191575 -0.0874055,0.00250787 -0.106563,-0.037185 -0.0191575,-0.0396929 -0.00250787,-0.0874055 0.037185,-0.106563l0.935937 -0.453217c0.0396929,-0.0191575 0.0874055,-0.00250787 0.106563,0.037185 0.00540551,0.0112008 0.00796063,0.0230354 0.00795276,0.034689l0.000173228 0 0 0.453217c0,0.0441811 -0.0358189,0.08 -0.08,0.08 -0.0441811,0 -0.08,-0.0358189 -0.08,-0.08l0 -0.325807 -0.821248 0.397681z"/>
  <path class="fil0" d="M4.29247 3.76l3.93701e-006 0c0.168752,0 0.322106,0.0689803 0.433228,0.180102 0.111122,0.111122 0.180102,0.26448 0.180102,0.433228l0 0.97948c0,0.046063 -0.0187874,0.0878819 -0.0490472,0.118142 -0.0302598,0.0302598 -0.0720787,0.0490472 -0.118142,0.0490472l-0.892287 0c-0.0460551,0 -0.0878819,-0.0187874 -0.118142,-0.0490472 -0.0302598,-0.0302598 -0.0490472,-0.0720787 -0.0490472,-0.118142l0 -0.97948c0,-0.168748 0.0689803,-0.322106 0.180102,-0.433228 0.111122,-0.111122 0.26448,-0.180102 0.433228,-0.180102zm3.93701e-006 0.16l-3.93701e-006 0c-0.124579,0 -0.237902,0.0510276 -0.320102,0.133228 -0.0822008,0.0822008 -0.133228,0.195524 -0.133228,0.320102l0 0.97948c0,0.0018937 0.000834646,0.00367717 0.00217323,0.00501575 0.00133858,0.00133858 0.00312205,0.00217323 0.00501575,0.00217323l0.892287 0c0.0018937,0 0.00367717,-0.000834646 0.00501575,-0.00217323 0.00133858,-0.00133858 0.00217323,-0.00312205 0.00217323,-0.00501575l0 -0.97948c0,-0.124579 -0.0510276,-0.237902 -0.133228,-0.320102 -0.0822008,-0.0822008 -0.195524,-0.133228 -0.320102,-0.133228z"/>
  <path class="fil0" d="M4.13247 3.10413l0.32 0c0.0441811,0 0.08,0.0358189 0.08,0.08l0 0.680555c0,0.0441811 -0.0358189,0.08 -0.08,0.08 -0.00940157,0 -0.0184213,-0.00162992 -0.0267992,-0.0046063 -0.0207441,-0.00642126 -0.0422441,-0.0114094 -0.0643661,-0.0148189 -0.0224331,-0.00346063 -0.0454252,-0.00525984 -0.0688307,-0.00525984l-3.93701e-006 0c-0.0234094,0 -0.0464055,0.00179921 -0.0688386,0.00525984 -0.0230906,0.00356299 -0.0455079,0.00884252 -0.0670984,0.0156811 -0.0421102,0.0132874 -0.0870276,-0.0100787 -0.100315,-0.052189 -0.00252362,-0.008 -0.00372047,-0.0160984 -0.00372441,-0.024063l-2.3622e-005 0 0 -0.680559c0,-0.0441811 0.0358189,-0.08 0.08,-0.08zm0.24 0.16l-0.16 0 0 0.501114c0.0262087,-0.00345669 0.0529134,-0.00524409 0.08,-0.00524409l3.93701e-006 0c0.0270787,0 0.0537874,0.0017874 0.0799961,0.00524409l0 -0.501114z"/>
  <path class="fil0" d="M4.00264 3.26413c-0.0441811,0 -0.08,-0.0358189 -0.08,-0.08 0,-0.0441811 0.0358189,-0.08 0.08,-0.08l0.579669 0c0.0441811,0 0.08,0.0358189 0.08,0.08 0,0.0441811 -0.0358189,0.08 -0.08,0.08l-0.579669 0z"/>
  <path class="fil1" d="M4.15655 3.94097c-0.0702087,0.0222598 -0.133181,0.0612559 -0.184177,0.112252 -0.0822008,0.0822008 -0.133228,0.195524 -0.133228,0.320102l0 0.97948c0,0.0018937 0.000834646,0.00367717 0.00217323,0.00501575 0.00133858,0.00133858 0.00312205,0.00217323 0.00501575,0.00217323l0.892287 0c0.0018937,0 0.00367717,-0.000834646 0.00501575,-0.00217323 0.00133858,-0.00133858 0.00217323,-0.00312205 0.00217323,-0.00501575l0 -0.97948c0,-0.124579 -0.0510276,-0.237902 -0.133228,-0.320102 -0.0506693,-0.0506693 -0.113161,-0.0894921 -0.182823,-0.111823 -0.000980315,-0.000287402 -0.00195669,-0.000598425 -0.00292126,-0.000925197 -0.000389764,-0.000122047 -0.000783465,-0.000244094 -0.00116142,-0.000401575 -0.020874,-0.00642913 -0.0423661,-0.0114213 -0.0643661,-0.014815 -0.0224606,-0.00346457 -0.0454488,-0.00526378 -0.0688346,-0.00526378 -0.0234094,0 -0.0464055,0.00179921 -0.0688386,0.00525984 -0.0229606,0.00354724 -0.0453701,0.00883071 -0.0670866,0.0157165z"/>
  <path class="fil2" d="M4.21247 3.26413l0 0.501114c0.0262087,-0.00345669 0.0529134,-0.00524409 0.0800039,-0.00524409 0.0270787,0 0.0537874,0.0017874 0.0799961,0.00524409l0 -0.501114 -0.16 0z"/>
  <path class="fil3" d="M2.35063 4.73211c-0.032122,-0.0674213 -0.0609094,-0.135949 -0.0823583,-0.198114 -0.0248425,-0.0494724 -0.0388307,-0.105343 -0.0388307,-0.164469 0,-0.000901575 4.33071e-005,-0.00179528 0.000133858,-0.00267323 -9.05512e-005,-0.0024685 -0.000133858,-0.00488583 -0.000133858,-0.00724803 0,-0.101339 0.0410866,-0.193098 0.107496,-0.259512 0.0664134,-0.0664094 0.158173,-0.107496 0.259512,-0.107496 0.101339,0 0.193098,0.0410866 0.259512,0.107496 0.0664094,0.0664134 0.107496,0.158173 0.107496,0.259512 0,0.00238583 -4.33071e-005,0.00483465 -0.000122047,0.00733858 7.87402e-005,0.000850394 0.000122047,0.0017126 0.000122047,0.00258268 0,0.0503543 -0.0101457,0.0983425 -0.0284961,0.142031 -0.0235,0.0793858 -0.0596693,0.1715 -0.101413,0.259126 -0.0681969,0.143138 -0.15226,0.276126 -0.221787,0.325047l-3.14961e-005 -4.33071e-005c-0.00988189,0.00696063 -0.0235984,0.00646457 -0.0329882,-0.00193701 -0.0617953,-0.0554213 -0.15428,-0.206677 -0.22811,-0.361642zm0.761413 0.627894l0 -1.62679 -0.175256 0 -0.855937 0 0 1.57384c0,0.0144764 0.00598425,0.0277008 0.0156142,0.0373307 0.00962992,0.00962992 0.0228543,0.0156142 0.0373307,0.0156142l0.978248 0z"/>
  <polygon class="fil3" points="2.34918,3.57321 2.85679,3.57321 2.85679,3.32741 "/>
  <path class="fil2" d="M2.82672 4.65532c-0.0629685,0.0507953 -0.143071,0.0812126 -0.230264,0.0812126 -0.0818228,0 -0.157406,-0.0267874 -0.218437,-0.072063 0.0067126,0.0148819 0.0136417,0.0298189 0.0207441,0.0447244 0.0649843,0.136394 0.143382,0.268421 0.199551,0.329201 0.058437,-0.0523425 0.128169,-0.166902 0.187114,-0.290626 0.0145827,-0.0306102 0.0284567,-0.061689 0.0412913,-0.0924488z"/>
  <path class="fil2" d="M2.59645 4.68319c0.0866181,0 0.165047,-0.0351102 0.221803,-0.0918661 0.0286339,-0.0286339 0.0517598,-0.0627835 0.0676457,-0.10072 0.015311,-0.0526732 0.0242205,-0.0983504 0.0242205,-0.131004 0,-0.0866181 -0.0351102,-0.165047 -0.0918661,-0.221803 -0.0567559,-0.0567559 -0.135185,-0.0918661 -0.221803,-0.0918661 -0.086622,0 -0.165047,0.0351102 -0.221803,0.0918661 -0.0567559,0.0567559 -0.0918661,0.135185 -0.0918661,0.221803 0,0.0368346 0.0127835,0.0902598 0.033748,0.151618 0.0150866,0.0297441 0.0347717,0.0567598 0.0581181,0.0801063 0.0567559,0.0567559 0.135181,0.0918661 0.221803,0.0918661zm-0.198445 -0.174776l0 0zm0.425228 -0.0202283l0 0zm-0.125169 0.045126l0 0zm0.0038937 -0.056878l-0.157681 -0.0580512 -0.0377559 0.162941c-0.00327559,0.0143228 -0.0175512,0.0232756 -0.031874,0.02 -0.00275591,-0.000629921 -0.00530709,-0.00166929 -0.00761811,-0.00303543 -0.0286181,-0.0145472 -0.0450236,-0.0288386 -0.0547008,-0.0425984 -0.0114803,-0.0163228 -0.0136496,-0.0307677 -0.0143504,-0.0441496 -5.51181e-005,-0.00105512 -3.93701e-005,-0.00209449 0,-0.00312598l0.0104685 -0.151819c-0.0143386,-0.0096378 -0.0285118,-0.0204724 -0.041122,-0.0320472 -0.0280472,-0.0257441 -0.0492835,-0.0560591 -0.0511732,-0.0878307 -0.000625984,-0.0106299 0.00508268,-0.0201732 0.0138543,-0.0249488 0.0266811,-0.0165551 0.0629567,-0.0174213 0.0996299,-0.0103819 0.0166024,0.00318898 0.0335433,0.00804724 0.0496811,0.0137362l0.11513 -0.0992559c0.000814961,-0.000700787 0.00168504,-0.00136614 0.00260236,-0.00198031 0.0110945,-0.0074252 0.0239291,-0.0143307 0.0439606,-0.0149252 0.0171535,-0.000503937 0.0389055,0.00423622 0.0684803,0.0190433 0.00183071,0.000917323 0.00357874,0.00205906 0.0052126,0.00343307 0.0112165,0.00943307 0.0126654,0.0261811 0.00323228,0.0373976l-0.107795 0.127874 0.141079 0.0914921 0.043 -0.037063c0.000814961,-0.000700787 0.00168504,-0.00136614 0.00260236,-0.00198031 0.00753937,-0.00504724 0.0163189,-0.00974409 0.0303189,-0.0101575 0.010752,-0.000314961 0.0239606,0.00238189 0.0412087,0.0107598 0.00251181,0.0010315 0.00490551,0.00246457 0.00709055,0.00431102 0.0112165,0.00949213 0.0126181,0.0262874 0.00312598,0.0375039l-0.0504488 0.0598425c0.00359843,0.00825197 0.00543701,0.0172677 0.00514567,0.0266969 -0.000224409,0.00815748 -0.00410236,0.0153583 -0.01,0.0201063 -0.0073622,0.00587402 -0.0157165,0.00980315 -0.0245512,0.0118701l-0.0177008 0.076378c-0.00327559,0.0143228 -0.0175512,0.0232756 -0.031874,0.02 -0.00277165,-0.000633858 -0.00533465,-0.00167717 -0.00765354,-0.00305512 -0.0171496,-0.00882283 -0.0272677,-0.0178031 -0.0334567,-0.0266024 -0.00800787,-0.0113858 -0.00951181,-0.0212598 -0.00998819,-0.030374 -5.51181e-005,-0.00105512 -3.93701e-005,-0.00209449 0,-0.00312598l0.00392126 -0.056878z"/>
  <g id="_514594456">
   <path id="_514594384" class="fil3" d="M2.56525 4.2576l0.0880354 -0.104437c-0.00414567,-0.000850394 -0.0077126,-0.00116535 -0.0108189,-0.0010748 -0.00578346,0.000169291 -0.0103898,0.00246063 -0.0145236,0.0051063l-0.0943543 0.0813465c0.00710236,0.00372441 0.0135591,0.00743307 0.0191339,0.0109528 0.000688976,0.000437008 0.00136614,0.000866142 0.00202362,0.00129528l0.0105039 0.00681102z"/>
   <path id="_514594648" class="fil3" d="M2.55595 4.31493l-0.0301614 -0.0195591c-0.00584646,-0.00379134 -0.0135197,-0.00811417 -0.0225197,-0.0125827 -0.00818504,-0.00406693 -0.0177283,-0.00832677 -0.0282677,-0.0124882l2.3622e-005 -5.90551e-005c-0.000488189,-0.000192913 -0.000972441,-0.000397638 -0.00144882,-0.000622047 -0.0170118,-0.00662205 -0.0356693,-0.0124331 -0.053937,-0.0159409 -0.0164882,-0.00316142 -0.0321496,-0.00442913 -0.0448071,-0.00248819 0.00598031,0.0112008 0.0162638,0.0229291 0.0285354,0.0341929 0.013748,0.012622 0.0296102,0.0241732 0.0450984,0.0338622 0.00104331,0.000547244 0.00204331,0.00116142 0.00299606,0.00183858 0.00827165,0.00506299 0.0166024,0.00967717 0.0245079,0.0137047 0.00837795,0.00422441 0.0160866,0.00761811 0.0226024,0.0100157l0.0357677 0.0131693 0.203528 0.0749331 -0.181917 -0.117976z"/>
   <path id="_514595032" class="fil3" d="M2.4631 4.53299l0.0308504 -0.133138 -0.0137087 -0.00504724c-0.0060748,-0.00223622 -0.0129921,-0.00517323 -0.0204567,-0.00872047l-0.0085748 0.124386c0.000362205,0.00482677 0.00131496,0.00983071 0.00466535,0.0145984 0.00176772,0.00251575 0.00412205,0.00515354 0.00722441,0.00792126z"/>
  </g>
  <path class="fil4" d="M1.97333 2.66666l2.88 0c0.0589094,0 0.106669,0.0477598 0.106669,0.106669 0,0.0589094 -0.0477598,0.106669 -0.106669,0.106669l-2.88 0c-0.0589094,0 -0.106669,-0.0477598 -0.106669,-0.106669 0,-0.0589094 0.0477598,-0.106669 0.106669,-0.106669zm-0.002 0.912181l0.930772 -0.450717c0.0396929,-0.0191575 0.0874055,-0.00250787 0.106563,0.037185 0.00540551,0.0112008 0.00796063,0.0230354 0.00795276,0.034689l0.000173228 0 0 0.373217 0.175256 0c0.0441811,0 0.08,0.0358189 0.08,0.08l0 1.78679c0,0.0441811 -0.0358189,0.08 -0.08,0.08l-1.05825 0c-0.0586457,0 -0.111906,-0.023937 -0.150457,-0.0624882 -0.0385512,-0.0385512 -0.0624882,-0.091811 -0.0624882,-0.150457l0 -1.65384c0,-0.033752 0.0209055,-0.062626 0.0504764,-0.074374zm0.588661 -1.13518c0,0.0589094 -0.0477598,0.106669 -0.106669,0.106669 -0.0589094,0 -0.106669,-0.0477598 -0.106669,-0.106669l0 -0.515945 -0.602949 0c-0.0151299,0 -0.0298504,0.0100079 -0.042563,0.0261614 -0.0227953,0.0289606 -0.0379291,0.0722047 -0.0429803,0.12113l-0.367449 3.55937c-0.000287402,0.00279528 -0.000429134,0.00737402 -0.000429134,0.0136024 0,0.0312677 0.0112559,0.0593583 0.0287087,0.0801457 0.0152559,0.0181732 0.0341378,0.0300079 0.0524409,0.0318937 0.000145669,1.1811e-005 0.00142913,-2.3622e-005 0.00482677,-2.3622e-005l4.14915 0c0.00338976,0 0.00467323,3.54331e-005 0.0048189,2.3622e-005 0.0183071,-0.00188976 0.0371929,-0.0137283 0.0524488,-0.0319016 0.0174488,-0.0207874 0.0287047,-0.048878 0.0287047,-0.0801417 0,-0.00622835 -0.000141732,-0.0108071 -0.000429134,-0.0135984l-0.367445 -3.55937c-0.00504724,-0.0489173 -0.020185,-0.0921614 -0.0429843,-0.121126 -0.0127165,-0.0161535 -0.0274331,-0.0261654 -0.0425591,-0.0261654l-0.677957 0 0 0.515945c0,0.0589094 -0.0477598,0.106669 -0.106669,0.106669 -0.0589094,0 -0.106669,-0.0477598 -0.106669,-0.106669l0 -0.515945 -1.70667 0 0 0.515945zm1.36265 0.740472c0,-0.0441811 0.0358189,-0.08 0.08,-0.08l0.128701 0c0.000377953,-3.93701e-006 0.000755906,-7.87402e-006 0.00113386,-7.87402e-006l0.32 0c0.000377953,0 0.000755906,3.93701e-006 0.00113386,7.87402e-006l0.128701 0c0.0441811,0 0.08,0.0358189 0.08,0.08 0,0.0441811 -0.0358189,0.08 -0.08,0.08l-0.0498346 0 0 0.544996c0.0726181,0.0311063 0.138118,0.0758543 0.193232,0.130969 0.111122,0.111122 0.180102,0.26448 0.180102,0.433228l0 0.97948c0,0.046063 -0.0187874,0.0878819 -0.0490472,0.118142 -0.0302598,0.0302598 -0.0720787,0.0490472 -0.118142,0.0490472l-0.892287 0c-0.0460551,0 -0.0878819,-0.0187874 -0.118142,-0.0490472 -0.0302598,-0.0302598 -0.0490472,-0.0720787 -0.0490472,-0.118142l0 -0.97948c0,-0.168748 0.0689803,-0.322106 0.180102,-0.433228 0.0551102,-0.0551102 0.120614,-0.0998583 0.193228,-0.130965l0 -0.545 -0.0498346 0c-0.0441811,0 -0.08,-0.0358189 -0.08,-0.08z"/>
 </g>
 <rect class="fil5" width="6.82666" height="6.82666"/>
</svg>
