<?xml version="1.0" encoding="utf-8"?>
<!-- Generator: Adobe Illustrator 24.3.0, SVG Export Plug-In . SVG Version: 6.00 Build 0)  -->
<svg version="1.1" id="Layer_1" xmlns="http://www.w3.org/2000/svg" xmlns:xlink="http://www.w3.org/1999/xlink" x="0px" y="0px"
	 viewBox="0 0 800 800" enable-background="new 0 0 800 800" xml:space="preserve">
<g>
	<path d="M137.504,748.279h524.992c46.845,0,84.956-38.112,84.956-84.956v-18.625c0-9.245-7.524-16.768-16.768-16.768H705.16
		v-322.78c0-19.67-16.003-35.67-35.67-35.67H130.51c-19.667,0-35.67,16.001-35.67,35.67v322.78H71.694
		c-10.558,0-19.146,8.588-19.146,19.142v16.252C52.548,710.167,90.659,748.279,137.504,748.279z M113.393,305.149
		c0-9.437,7.678-17.117,17.117-17.117h538.98c9.44,0,17.117,7.68,17.117,17.117v322.78H521.89H278.984H113.393V305.149z
		 M284.623,646.482h230.753v0.349c0,10.268-8.352,18.621-18.621,18.621H303.244c-10.268,0-18.621-8.353-18.621-18.621V646.482z
		 M71.101,647.071c0-0.303,0.29-0.589,0.593-0.589H94.84h171.23v0.349c0,20.496,16.678,37.174,37.174,37.174h193.511
		c20.496,0,37.174-16.678,37.174-37.174v-0.349h171.23h23.739v16.841c0,36.617-29.786,66.403-66.403,66.403H137.504
		c-36.617,0-66.403-29.786-66.403-66.403V647.071z"/>
	<path d="M655.054,569.09V348.109c0-17.452-14.2-31.652-31.657-31.652H176.603c-17.452,0-31.652,14.2-31.652,31.652V569.09
		c0,17.452,14.2,31.653,31.652,31.653h446.794C640.854,600.743,655.054,586.542,655.054,569.09z M163.503,569.09V348.109
		c0-7.222,5.875-13.099,13.099-13.099h446.794c7.225,0,13.104,5.877,13.104,13.099V569.09c0,7.225-5.879,13.1-13.104,13.1H176.603
		C169.378,582.19,163.503,576.315,163.503,569.09z"/>
	<path d="M583.224,138.053c-24.221,22.948-48.442,45.896-72.664,68.845c-8.685,8.229,4.45,21.332,13.119,13.119
		c24.222-22.948,48.442-45.896,72.664-68.844C605.028,142.943,591.893,129.839,583.224,138.053z"/>
	<path d="M600.615,126.516c0,4.792,3.885,8.677,8.677,8.677c4.792,0,8.677-3.885,8.677-8.677c0-4.792-3.885-8.677-8.677-8.677
		C604.5,117.839,600.615,121.724,600.615,126.516z"/>
	<path d="M203.658,151.172c24.221,22.948,48.442,45.896,72.663,68.844c8.666,8.21,21.809-4.886,13.119-13.119
		c-24.221-22.948-48.442-45.896-72.663-68.845C208.111,129.843,194.968,142.939,203.658,151.172z"/>
	<path d="M182.031,126.516c0,4.792,3.885,8.677,8.678,8.677c4.792,0,8.677-3.885,8.677-8.677c0-4.792-3.885-8.677-8.677-8.677
		C185.917,117.839,182.031,121.724,182.031,126.516z"/>
	<path d="M389.539,187.101c0.11,11.932,18.663,11.961,18.553,0c-0.307-33.365-0.614-66.729-0.921-100.094
		c-0.11-11.932-18.663-11.961-18.553,0C388.925,120.372,389.232,153.737,389.539,187.101z"/>
	<path d="M404.284,66.308c3.264-3.509,3.065-8.999-0.444-12.263c-3.509-3.264-8.999-3.065-12.263,0.444
		c-3.264,3.509-3.065,9,0.444,12.263C395.529,70.016,401.02,69.817,404.284,66.308z"/>
	<path d="M531.963,428.323c-18.845,17.855-37.691,35.71-56.537,53.565c-5.018-3.018-10.866-4.786-17.135-4.786
		c-8.967,0-17.104,3.572-23.109,9.346l-66.355-41.02c0.797-2.855,1.256-5.85,1.256-8.957c0-18.408-14.979-33.385-33.387-33.385
		s-33.383,14.977-33.383,33.385c0,3.273,0.493,6.429,1.375,9.42l-63.786,40.701c-5.882-5.174-13.57-8.341-22.001-8.341
		c-18.408,0-33.387,14.977-33.387,33.387c0,18.408,14.979,33.385,33.387,33.385s33.383-14.977,33.383-33.385
		c0-3.273-0.493-6.429-1.375-9.42l63.786-40.701c5.882,5.174,13.57,8.341,22.001,8.341c8.602,0,16.43-3.299,22.356-8.662
		l66.853,41.327c-0.63,2.557-1,5.214-1,7.962c0,18.41,14.979,33.387,33.387,33.387c18.408,0,33.387-14.977,33.387-33.387
		c0-5.407-1.322-10.502-3.613-15.025c19.006-18.007,38.011-36.014,57.017-54.02C553.767,433.213,540.632,420.11,531.963,428.323z
		 M218.9,526.472c-8.18,0-14.834-6.654-14.834-14.832c0-8.18,6.654-14.834,14.834-14.834c8.176,0,14.83,6.654,14.83,14.834
		C233.73,519.818,227.076,526.472,218.9,526.472z M336.695,451.306c-8.176,0-14.83-6.654-14.83-14.834
		c0-8.178,6.654-14.832,14.83-14.832c8.18,0,14.834,6.654,14.834,14.832C351.529,444.652,344.875,451.306,336.695,451.306z
		 M458.291,525.321c-8.18,0-14.834-6.654-14.834-14.834c0-8.178,6.654-14.832,14.834-14.832c8.18,0,14.834,6.654,14.834,14.832
		C473.125,518.667,466.471,525.321,458.291,525.321z"/>
	<circle cx="566.234" cy="412.363" r="8.674"/>
	<path d="M606.773,362.897c-19.85,0.589-39.7,1.179-59.551,1.769c-11.912,0.354-11.963,18.908,0,18.553
		c16.467-0.489,32.934-0.978,49.401-1.467c-1.563,17.136-3.127,34.273-4.69,51.409c-1.084,11.886,17.476,11.812,18.553,0
		c1.854-20.329,3.709-40.658,5.563-60.987C616.497,367.275,611.437,362.758,606.773,362.897z"/>
	<path fill="#F16235" d="M284.623,646.482h230.753v0.349c0,10.268-8.352,18.621-18.621,18.621H303.244
		c-10.268,0-18.621-8.353-18.621-18.621V646.482z"/>
	<path fill="#58C7DE" d="M71.101,647.071c0-0.303,0.29-0.589,0.593-0.589H94.84h171.23v0.349c0,20.496,16.678,37.174,37.174,37.174
		h193.511c20.496,0,37.174-16.678,37.174-37.174v-0.349h171.23h23.739v16.841c0,36.617-29.786,66.403-66.403,66.403H137.504
		c-36.617,0-66.403-29.786-66.403-66.403V647.071z"/>
	<path fill="#F16235" d="M218.9,526.472c-8.18,0-14.834-6.654-14.834-14.832c0-8.18,6.654-14.834,14.834-14.834
		c8.176,0,14.83,6.654,14.83,14.834C233.73,519.818,227.076,526.472,218.9,526.472z"/>
	<path fill="#58C7DE" d="M336.695,451.306c-8.176,0-14.83-6.654-14.83-14.834c0-8.178,6.654-14.832,14.83-14.832
		c8.18,0,14.834,6.654,14.834,14.832C351.529,444.652,344.875,451.306,336.695,451.306z"/>
	<path fill="#F16235" d="M458.291,525.321c-8.18,0-14.834-6.654-14.834-14.834c0-8.178,6.654-14.832,14.834-14.832
		c8.18,0,14.834,6.654,14.834,14.832C473.125,518.667,466.471,525.321,458.291,525.321z"/>
</g>
</svg>
