<svg xmlns="http://www.w3.org/2000/svg" viewBox="0 0 48 48"><defs><style>.cls-1{fill:#dad7e5;}.cls-2{fill:#edebf2;}.cls-3{fill:#82bcf4;}.cls-4{fill:#6fabe6;}.cls-5{fill:#374f68;}.cls-6{fill:#425b72;}.cls-7{fill:#2c435e;}.cls-8{fill:#7c7d7d;}.cls-9{fill:#919191;}</style></defs><title>Online Shop Mobile</title><g id="Online_Shop_Mobile" data-name="Online Shop Mobile"><rect class="cls-1" x="9" y="7" width="30" height="34"/><rect class="cls-2" x="20" y="7" width="19" height="34"/><rect class="cls-3" x="37" y="7" width="2" height="34"/><rect class="cls-4" x="9" y="7" width="2" height="34"/><path class="cls-4" d="M39,5V7H9V5a4,4,0,0,1,4-4H35A4,4,0,0,1,39,5Z"/><path class="cls-3" d="M39,5V7H20V5a4,4,0,0,1,4-4H35A4,4,0,0,1,39,5Z"/><path class="cls-4" d="M39,41c0,1.94.13,2.83-.54,4A4,4,0,0,1,35,47H13a4,4,0,0,1-4-4V41Z"/><path class="cls-3" d="M39,41c0,1.94.13,2.83-.54,4H24a4,4,0,0,1-4-4Z"/><path class="cls-4" d="M35,21c-1.79,8-1.41,6.34-2,9H18l-1.38-9Z"/><path class="cls-3" d="M35,21l-1.56,7h-9a4,4,0,0,1-3.95-3.39L19.93,21Z"/><path class="cls-5" d="M22,37a1,1,0,0,0-2,0,1,1,0,0,0,2,0"/><path class="cls-5" d="M28,37a1,1,0,0,0-2,0,1,1,0,0,0,2,0"/><path class="cls-5" d="M26,45H22a1,1,0,0,1,0-2h4A1,1,0,0,1,26,45Z"/><path class="cls-6" d="M27,44H23a1,1,0,0,1-1-1h4A1,1,0,0,1,27,44Z"/><path class="cls-5" d="M19,30a1,1,0,0,0-1,1,1,1,0,0,1-1-.85c-.27-1.69,0,0-1.87-12.15H13a1,1,0,0,1,0-2h3a1,1,0,0,1,1,.85C19.24,31.45,19,29.83,19,30Z"/><path class="cls-5" d="M30,34H19a3,3,0,0,1-.29-6c.31,2.05.29,1.85.29,2a1,1,0,0,0,0,2H30A1,1,0,0,1,30,34Z"/><path class="cls-7" d="M18.15,31.5A1,1,0,0,0,19,33c11.75,0,11.43-.2,11.85.5A1,1,0,0,0,30,32C18.25,32,18.57,32.2,18.15,31.5Z"/><path class="cls-8" d="M26.71,15.71c-3.07,3.07-2.34,3.08-5.42,0a1,1,0,0,1,1.42-1.42c.41.43.29,1,.29-3.29a1,1,0,0,1,2,0v3.59l.29-.3A1,1,0,0,1,26.71,15.71Z"/><path class="cls-9" d="M26.71,15.71C24.81,17.61,24.59,18,24,18V10a1,1,0,0,1,1,1v3.59l.29-.3A1,1,0,0,1,26.71,15.71Z"/></g></svg>